<svg width="36" height="36" viewBox="0 0 36 36" fill="none" xmlns="http://www.w3.org/2000/svg">
<path d="M28 13.8359L18.1866 21.1259C18.1309 21.1672 18.0656 21.1875 18 21.1875C17.9344 21.1875 17.8691 21.1672 17.8134 21.1259L8 13.8359C8 19.7143 8 21.2062 8 24.25C8 24.9409 8.55906 25.5 9.25 25.5H26.75C27.4409 25.5 28 24.9409 28 24.25C28 16.2035 28 27.2278 28 13.8359Z" fill="#F9FAFB"/>
<path d="M18 19.4856L28 12.0572V11.75C28 11.0591 27.4409 10.5 26.75 10.5H9.25C8.55906 10.5 8 11.0591 8 11.75V12.0569L18 19.4856Z" fill="#F9FAFB"/>
<rect x="1" y="1" width="34" height="34" rx="17" stroke="#F9FAFB" stroke-width="2"/>
</svg>
