<svg width="36" height="36" viewBox="0 0 36 36" fill="none" xmlns="http://www.w3.org/2000/svg">
<path fill-rule="evenodd" clip-rule="evenodd" d="M18 8C23.523 8 28 12.5899 28 18.2529C28 22.7819 25.138 26.6239 21.167 27.9809C20.66 28.0819 20.48 27.7617 20.48 27.4887C20.48 27.1507 20.492 26.0468 20.492 24.6748C20.492 23.7188 20.172 23.0948 19.813 22.7768C22.04 22.5228 24.38 21.6558 24.38 17.7178C24.38 16.5978 23.992 15.6838 23.35 14.9658C23.454 14.7068 23.797 13.6639 23.252 12.2519C23.252 12.2519 22.414 11.9772 20.505 13.3032C19.706 13.0762 18.85 12.962 18 12.958C17.15 12.962 16.295 13.0762 15.497 13.3032C13.586 11.9772 12.746 12.2519 12.746 12.2519C12.203 13.6639 12.546 14.7068 12.649 14.9658C12.01 15.6838 11.619 16.5978 11.619 17.7178C11.619 21.6458 13.954 22.5261 16.175 22.7851C15.889 23.0411 15.63 23.4927 15.54 24.1557C14.97 24.4177 13.522 24.8712 12.63 23.3042C12.63 23.3042 12.101 22.3191 11.097 22.2471C11.097 22.2471 10.122 22.2341 11.029 22.8701C11.029 22.8701 11.684 23.1851 12.139 24.3701C12.139 24.3701 12.726 26.2001 15.508 25.5801C15.513 26.4371 15.522 27.2447 15.522 27.4887C15.522 27.7597 15.338 28.0769 14.839 27.9819C10.865 26.6269 8 22.7829 8 18.2529C8 12.5899 12.478 8 18 8Z" fill="#F9FAFB"/>
<rect x="1" y="1" width="34" height="34" rx="17" stroke="#F9FAFB" stroke-width="2"/>
</svg>
