<svg width="36" height="36" viewBox="0 0 36 36" fill="none" xmlns="http://www.w3.org/2000/svg">
<path d="M13.6782 7.773C13.6782 7.773 13.3428 7 12.8305 7C12.3264 7 12.0641 7.229 11.8893 7.387C11.7145 7.545 8.78924 9.91 8.78924 9.91C8.78924 9.91 7.9385 10.641 8.00355 12.016C8.05844 13.391 8.33185 15.348 9.75077 18.074C11.1595 20.794 14.6855 24.95 16.9134 26.411C16.9134 26.411 18.9778 27.969 20.8988 28.602C21.4568 28.775 22.5728 29 22.833 29C23.0973 29 23.5638 29 24.0995 28.615C24.6443 28.226 27.7007 25.808 27.7007 25.808C27.7007 25.808 28.4487 25.143 27.5797 24.37C26.7066 23.597 24.0558 21.878 23.4886 21.426C22.9205 20.967 22.1114 21.169 21.7617 21.48C21.4131 21.793 20.79 22.308 20.7138 22.373C20.6 22.459 20.2879 22.738 19.9383 22.599C19.4931 22.426 17.6676 21.451 15.9753 19.173C14.2931 16.897 14.1081 16.153 13.8571 15.349C13.8145 15.2301 13.8139 15.1006 13.8554 14.9814C13.8969 14.8622 13.9781 14.7602 14.0858 14.692C14.3378 14.52 15.2658 13.759 15.2658 13.759C15.2658 13.759 15.8665 13.176 15.6155 12.489C15.3644 11.802 13.6782 7.773 13.6782 7.773Z" fill="#F9FAFB"/>
<rect x="1" y="1" width="34" height="34" rx="17" stroke="#F9FAFB" stroke-width="2"/>
</svg>
