<svg id="visual" viewBox="0 0 900 450" width="900" height="450" xmlns="http://www.w3.org/2000/svg" xmlns:xlink="http://www.w3.org/1999/xlink" version="1.1"><rect x="0" y="0" width="900" height="450" fill="#001220"></rect><path d="M0 307L13.7 309C27.3 311 54.7 315 82 315.8C109.3 316.7 136.7 314.3 163.8 309.7C191 305 218 298 245.2 293.8C272.3 289.7 299.7 288.3 327 290.3C354.3 292.3 381.7 297.7 409 295.3C436.3 293 463.7 283 491 271.5C518.3 260 545.7 247 573 239.3C600.3 231.7 627.7 229.3 654.8 240.7C682 252 709 277 736.2 283.8C763.3 290.7 790.7 279.3 818 270.2C845.3 261 872.7 254 886.3 250.5L900 247L900 451L886.3 451C872.7 451 845.3 451 818 451C790.7 451 763.3 451 736.2 451C709 451 682 451 654.8 451C627.7 451 600.3 451 573 451C545.7 451 518.3 451 491 451C463.7 451 436.3 451 409 451C381.7 451 354.3 451 327 451C299.7 451 272.3 451 245.2 451C218 451 191 451 163.8 451C136.7 451 109.3 451 82 451C54.7 451 27.3 451 13.7 451L0 451Z" fill="#fa7268"></path><path d="M0 308L13.7 309.7C27.3 311.3 54.7 314.7 82 319.7C109.3 324.7 136.7 331.3 163.8 332.3C191 333.3 218 328.7 245.2 330.7C272.3 332.7 299.7 341.3 327 335.8C354.3 330.3 381.7 310.7 409 306.7C436.3 302.7 463.7 314.3 491 323.8C518.3 333.3 545.7 340.7 573 342.2C600.3 343.7 627.7 339.3 654.8 336.2C682 333 709 331 736.2 324.8C763.3 318.7 790.7 308.3 818 299.5C845.3 290.7 872.7 283.3 886.3 279.7L900 276L900 451L886.3 451C872.7 451 845.3 451 818 451C790.7 451 763.3 451 736.2 451C709 451 682 451 654.8 451C627.7 451 600.3 451 573 451C545.7 451 518.3 451 491 451C463.7 451 436.3 451 409 451C381.7 451 354.3 451 327 451C299.7 451 272.3 451 245.2 451C218 451 191 451 163.8 451C136.7 451 109.3 451 82 451C54.7 451 27.3 451 13.7 451L0 451Z" fill="#eb5967"></path><path d="M0 323L13.7 332.2C27.3 341.3 54.7 359.7 82 364.8C109.3 370 136.7 362 163.8 363.2C191 364.3 218 374.7 245.2 376C272.3 377.3 299.7 369.7 327 361C354.3 352.3 381.7 342.7 409 344.5C436.3 346.3 463.7 359.7 491 363.2C518.3 366.7 545.7 360.3 573 361.7C600.3 363 627.7 372 654.8 366.5C682 361 709 341 736.2 340.8C763.3 340.7 790.7 360.3 818 363.3C845.3 366.3 872.7 352.7 886.3 345.8L900 339L900 451L886.3 451C872.7 451 845.3 451 818 451C790.7 451 763.3 451 736.2 451C709 451 682 451 654.8 451C627.7 451 600.3 451 573 451C545.7 451 518.3 451 491 451C463.7 451 436.3 451 409 451C381.7 451 354.3 451 327 451C299.7 451 272.3 451 245.2 451C218 451 191 451 163.8 451C136.7 451 109.3 451 82 451C54.7 451 27.3 451 13.7 451L0 451Z" fill="#da3f67"></path><path d="M0 390L13.7 393.3C27.3 396.7 54.7 403.3 82 403.5C109.3 403.7 136.7 397.3 163.8 394.3C191 391.3 218 391.7 245.2 391C272.3 390.3 299.7 388.7 327 391.8C354.3 395 381.7 403 409 406.7C436.3 410.3 463.7 409.7 491 409.8C518.3 410 545.7 411 573 407.2C600.3 403.3 627.7 394.7 654.8 394.7C682 394.7 709 403.3 736.2 404.2C763.3 405 790.7 398 818 399.5C845.3 401 872.7 411 886.3 416L900 421L900 451L886.3 451C872.7 451 845.3 451 818 451C790.7 451 763.3 451 736.2 451C709 451 682 451 654.8 451C627.7 451 600.3 451 573 451C545.7 451 518.3 451 491 451C463.7 451 436.3 451 409 451C381.7 451 354.3 451 327 451C299.7 451 272.3 451 245.2 451C218 451 191 451 163.8 451C136.7 451 109.3 451 82 451C54.7 451 27.3 451 13.7 451L0 451Z" fill="#c62368"></path></svg>